# xmcd
#
# Track frame offsets:
#	150
#	12450
#	28983
#	39343
#	50500
#	67186
#	78980
#	94806
#	109864
#	118162
#
# Disc length: 1712 seconds
#
# Revision: 0
# Processed by: cddbd v1.5.2PL0 Copyright (c) Steve Scherf et al.
# Submitted via: EasyCDDAExtractor 10.2.0.1
#
DISCID=8806ae0a
DTITLE=Tammy Jones Robinette - He Told Me So
DYEAR=2000
DGENRE=Gospel
TTITLE0=He Told Me So
TTITLE1=If I Could Only Touch Him
TTITLE2=I'll Live Again
TTITLE3=There Has Never Been
TTITLE4=I'm Gonna Leave
TTITLE5=Old Time Feeling
TTITLE6=The Altar
TTITLE7=Behold His Coming
TTITLE8=I Wasn't There
TTITLE9=I've Got My Eye On Canaanland
EXTD=
EXTT0=
EXTT1=
EXTT2=
EXTT3=
EXTT4=
EXTT5=
EXTT6=
EXTT7=
EXTT8=
EXTT9=
PLAYORDER=
